<svg id="Capa_1" enable-background="new 0 0 512.268 512.268" height="512" viewBox="0 0 512.268 512.268" width="512" xmlns="http://www.w3.org/2000/svg"><g><path d="m376.929 297.052v-16.014c-8.719-3.534-15.438-8.388-20.358-12.644-4.613 3.392-10.416 7.366-17.577 10.68.054.764.038-.428.038 17.978 0 70.44 17.44 126.24 63.803 181.875 3.611 4.334 8.924 6.819 14.575 6.819 15.904 0 24.839-18.721 14.539-31.08-39.079-46.895-55.02-92.558-55.02-157.614z"/><path d="m135.339 281.038v16.015c0 65.056-15.94 110.719-55.019 157.613-10.311 12.372-1.355 31.081 14.538 31.081 5.651 0 10.964-2.485 14.575-6.819 46.362-55.634 63.803-111.432 63.803-181.875 0-19.405-.003-16.913.008-17.991-7.148-3.312-12.941-7.279-17.547-10.667-4.919 4.254-11.638 9.109-20.358 12.643z"/><path d="m203.237 285.979v207.34c0 10.448 8.5 18.949 18.948 18.949s18.949-8.5 18.949-18.949v-216.719c-11.746 6.413-24.192 9.646-37.897 9.379z"/><path d="m271.134 276.6v216.719c0 10.448 8.501 18.949 18.949 18.949s18.948-8.5 18.948-18.949c0-17.977 0-198.395 0-207.34-13.704.267-26.15-2.965-37.897-9.379z"/><path d="m447.654 201.68c-18.946-13.571-45.627-39.566-45.627-54.87 0-83.287-67.004-146.81-145.893-146.81-78.925 0-145.893 63.563-145.893 146.81 0 23.415-32.098 47.009-44.449 54.115-5.353 3.059-8.019 9.306-6.523 15.288 3.44 13.761 18.329 39.787 50.055 39.787 16.711 0 25.763-9.052 31.753-15.042 5.187-5.186 7.237-6.979 12.29-6.979 6.125 0 10.401 2.984 17.434 8.258 8.176 6.132 18.352 13.763 33.95 13.763 15.599 0 25.774-7.631 33.95-13.763 7.032-5.274 11.309-8.258 17.434-8.258s10.401 2.984 17.434 8.258c8.176 6.132 18.352 13.763 33.95 13.763 15.599 0 25.774-7.631 33.95-13.763 7.032-5.274 11.309-8.258 17.434-8.258 5.053 0 7.103 1.793 12.29 6.979 5.99 5.99 15.042 15.042 31.753 15.042 31.726 0 46.615-26.026 50.055-39.787 1.368-5.479-.755-11.244-5.347-14.533zm-215.52-20.678c-8.284 0-15-6.716-15-15s6.716-15 15-15 15 6.716 15 15c0 8.285-6.716 15-15 15zm48 0c-8.284 0-15-6.716-15-15s6.716-15 15-15 15 6.716 15 15c0 8.285-6.716 15-15 15z"/></g></svg>